<?xml version="1.0" encoding="UTF-8"?>
<svg xmlns="http://www.w3.org/2000/svg" xmlns:xlink="http://www.w3.org/1999/xlink" viewBox="0 0 48 48" version="1.1" width="96px" height="96px">
<g id="surface1">
<path style=" fill-rule:evenodd;fill:#7BC981;" d="M 37.703125 11 L 1 21 L 6 40 L 42.882813 30.320313 Z "/>
<path style=" fill-rule:evenodd;fill:#105F1C;" d="M 12.28125 28.164063 C 11.996094 27.097656 10.898438 26.464844 9.832031 26.75 C 8.765625 27.035156 8.132813 28.132813 8.417969 29.199219 C 8.703125 30.265625 9.800781 30.898438 10.867188 30.613281 C 11.933594 30.328125 12.566406 29.230469 12.28125 28.164063 Z "/>
<path style=" fill-rule:evenodd;fill:#105F1C;" d="M 35.460938 21.953125 C 35.175781 20.886719 34.082031 20.253906 33.011719 20.539063 C 31.945313 20.824219 31.3125 21.921875 31.597656 22.988281 C 31.886719 24.054688 32.980469 24.6875 34.046875 24.402344 C 35.117188 24.117188 35.75 23.019531 35.460938 21.953125 Z "/>
<path style=" fill-rule:evenodd;fill:#105F1C;" d="M 27.734375 24.023438 C 26.878906 20.824219 23.589844 18.921875 20.386719 19.78125 C 17.1875 20.640625 15.285156 23.929688 16.144531 27.128906 C 17.003906 30.332031 20.292969 32.230469 23.492188 31.371094 C 26.695313 30.515625 28.59375 27.222656 27.734375 24.023438 Z "/>
<path style=" fill:#105F1C;" d="M 37.703125 11 L 1 21 L 6 40 L 42.882813 30.320313 Z M 36.289063 13.449219 L 40.433594 28.90625 L 7.589844 37.703125 L 3.449219 22.25 L 36.289063 13.449219 "/>
<path style=" fill:#105F1C;" d="M 2.226563 21.542969 L 3.128906 24.910156 C 3.613281 25.109375 4.164063 25.164063 4.710938 25.015625 C 6.042969 24.660156 6.835938 23.289063 6.476563 21.953125 C 6.332031 21.410156 6.007813 20.960938 5.59375 20.636719 Z "/>
<path style=" fill:#105F1C;" d="M 36.996094 12.226563 L 33.628906 13.128906 C 33.429688 13.613281 33.375 14.164063 33.523438 14.710938 C 33.878906 16.042969 35.25 16.835938 36.585938 16.476563 C 37.132813 16.332031 37.578125 16.007813 37.902344 15.59375 Z "/>
<path style=" fill:#105F1C;" d="M 40.753906 26.242188 C 40.269531 26.042969 39.71875 25.988281 39.171875 26.136719 C 37.839844 26.492188 37.046875 27.863281 37.40625 29.199219 C 37.550781 29.742188 37.871094 30.191406 38.285156 30.515625 L 41.65625 29.613281 Z "/>
<path style=" fill:#105F1C;" d="M 10.253906 38.027344 C 10.449219 37.539063 10.507813 36.992188 10.359375 36.445313 C 10 35.109375 8.632813 34.320313 7.296875 34.675781 C 6.75 34.824219 6.304688 35.144531 5.980469 35.558594 L 6.882813 38.929688 Z "/>
<path style=" fill-rule:evenodd;fill:#A2D7A5;" d="M 35 0 L 2.089844 19 L 12.089844 36.320313 L 45 17 Z "/>
<path style=" fill-rule:evenodd;fill:#2D9037;" d="M 14.882813 23.160156 C 14.332031 22.203125 13.109375 21.875 12.152344 22.425781 C 11.195313 22.980469 10.867188 24.203125 11.421875 25.160156 C 11.972656 26.117188 13.195313 26.445313 14.152344 25.890625 C 15.109375 25.339844 15.4375 24.117188 14.882813 23.160156 Z "/>
<path style=" fill-rule:evenodd;fill:#2D9037;" d="M 35.667969 11.160156 C 35.117188 10.203125 33.894531 9.875 32.9375 10.425781 C 31.980469 10.980469 31.652344 12.203125 32.203125 13.160156 C 32.757813 14.117188 33.980469 14.445313 34.9375 13.890625 C 35.894531 13.339844 36.222656 12.117188 35.667969 11.160156 Z "/>
<path style=" fill-rule:evenodd;fill:#2D9037;" d="M 28.742188 15.160156 C 27.085938 12.289063 23.414063 11.304688 20.546875 12.964844 C 17.675781 14.621094 16.691406 18.289063 18.347656 21.160156 C 20.007813 24.027344 23.675781 25.011719 26.546875 23.355469 C 29.414063 21.699219 30.398438 18.027344 28.742188 15.160156 Z "/>
<path style=" fill:#2D9037;" d="M 35 0 L 2.089844 19 L 12.089844 36.320313 L 45 17 Z M 34.269531 2.730469 L 42.269531 16.589844 L 12.824219 33.589844 L 4.824219 19.730469 L 34.269531 2.730469 "/>
<path style=" fill:#2D9037;" d="M 3.457031 19.367188 L 5.203125 22.386719 C 5.722656 22.453125 6.265625 22.363281 6.757813 22.078125 C 7.953125 21.390625 8.363281 19.859375 7.671875 18.664063 C 7.390625 18.175781 6.964844 17.824219 6.480469 17.621094 Z "/>
<path style=" fill:#2D9037;" d="M 34.632813 1.367188 L 31.613281 3.109375 C 31.546875 3.632813 31.636719 4.175781 31.921875 4.664063 C 32.609375 5.859375 34.140625 6.269531 35.335938 5.578125 C 35.824219 5.296875 36.175781 4.871094 36.378906 4.386719 Z "/>
<path style=" fill:#2D9037;" d="M 41.890625 13.933594 C 41.367188 13.867188 40.824219 13.957031 40.335938 14.238281 C 39.136719 14.929688 38.730469 16.460938 39.417969 17.65625 C 39.703125 18.144531 40.128906 18.492188 40.613281 18.699219 L 43.632813 16.953125 Z "/>
<path style=" fill:#2D9037;" d="M 15.480469 33.210938 C 15.542969 32.6875 15.453125 32.144531 15.171875 31.65625 C 14.480469 30.460938 12.953125 30.050781 11.757813 30.738281 C 11.269531 31.023438 10.917969 31.449219 10.714844 31.933594 L 12.460938 34.953125 Z "/>
<path style=" fill:#B9DDFC;" d="M 42.101563 37 C 43.5 35.601563 46 32.898438 46 31 C 46 28.300781 43.800781 27 41 27 C 38.199219 27 36 28.300781 36 31 C 36 32.898438 38.5 35.601563 39.898438 37 C 38.5 38.398438 36 41.101563 36 43 C 36 45.699219 38.199219 47 41 47 C 43.800781 47 46 45.699219 46 43 C 46 41.101563 43.5 38.398438 42.101563 37 Z "/>
<path style=" fill:#B9DDFC;" d="M 42.101563 37 C 43.5 35.601563 46 32.898438 46 31 C 46 28.300781 43.800781 27 41 27 C 38.199219 27 36 28.300781 36 31 C 36 32.898438 38.5 35.601563 39.898438 37 C 38.5 38.398438 36 41.101563 36 43 C 36 45.699219 38.199219 47 41 47 C 43.800781 47 46 45.699219 46 43 C 46 41.101563 43.5 38.398438 42.101563 37 Z "/>
<path style=" fill:#6E4C40;" d="M 36 46 L 46 46 L 46 44 L 36 44 Z M 46 30 L 36 30 L 36 28 L 46 28 Z "/>
<path style=" fill:#8E6E62;" d="M 34 48 L 48 48 L 48 46 L 34 46 Z M 48 28 L 34 28 L 34 26 L 48 26 Z "/>
<path style=" fill:#FF9900;" d="M 38.398438 32 C 38.898438 32.898438 39.898438 34.101563 41 35.300781 C 42.199219 34.101563 43.101563 32.898438 43.601563 32 Z M 38 44 C 39 42 41 40 41 40 C 41 40 43 42 44 44 Z "/>
</g>
</svg>
