<svg xmlns="http://www.w3.org/2000/svg" viewBox="0 0 30 30" width="16" height="16" fill="#000000">
    <path d="M26.953,23.576L25,6c0-1.105-0.895-2-2-2h-8H7C5.895,4,5,4.895,5,6L3.047,23.576C3.018,23.713,3,23.854,3,24 c0,1.105,0.895,2,2,2h10h10c1.105,0,2-0.895,2-2C27,23.854,26.982,23.713,26.953,23.576z M20,8.908V10c0,2.757-2.243,5-5,5 s-5-2.243-5-5V8.908C9.419,8.702,9,8.152,9,7.5C9,6.672,9.672,6,10.5,6S12,6.672,12,7.5V10c0,1.654,1.346,3,3,3s3-1.346,3-3V7.5 C18,6.672,18.672,6,19.5,6S21,6.672,21,7.5C21,8.152,20.581,8.702,20,8.908z"/>
</svg>